<?xml version='1.0' encoding='UTF-8'?>
<svg xmlns="http://www.w3.org/2000/svg" style="enable-background:new 0 0 147.28 170.08;" version="1.1" viewBox="0 0 147.28 170.08" x="0px" y="0px" xml:space="preserve">
<g id="VuMark-Background">
	<polygon points="140.25,123.51 73.64,161.96 7.02,123.51 7.02,46.58 64.035,13.658 73.757,19.238    83.362,13.725 140.25,46.58  " style="fill:#FFFFFF;" />
	<polygon points="73.59,137.04 118.69,111.14 118.69,88.04 73.59,114.24 48.29,99.74 53.29,96.74    73.59,108.44 91.29,98.24 50.89,74.84 28.59,87.94 28.59,111.14  " style="fill:#6FBF4A;" />
	<polygon points="73.59,33.04 28.59,59.14 28.59,82.14 73.59,55.94 98.99,70.44 93.89,73.44 73.59,61.74    55.99,71.94 96.29,95.34 118.69,82.24 118.69,59.14  " style="fill:#515959;" />
</g>
<g id="VuMark-DarkElements">
	<polygon id="d0001_1_" points="38.928,133.731 38.936,128.002 33.977,125.142 33.968,130.862  " style="fill:#515959;" />
	<polygon id="d0006_1_" points="53.814,142.32 53.823,136.591 48.863,133.731 48.863,139.451  " style="fill:#515959;" />
	<polygon id="d0007_1_" points="53.814,136.6 53.823,130.871 48.863,128.011 48.863,133.731  " style="fill:#515959;" />
	<polygon id="d0010" points="63.732,148.049 63.741,142.32 58.782,139.46 58.782,145.18  " style="fill:#515959;" />
	<polygon id="d0011" points="63.732,142.329 63.741,136.6 58.782,133.74 58.782,139.46  " style="fill:#515959;" />
	<polygon id="d0012_1_" points="68.683,150.918 68.691,145.189 63.732,142.329 63.723,148.049  " style="fill:#515959;" />
	<polygon id="d0019_1_" points="24.059,119.413 24.067,113.684 19.108,110.824 19.108,116.544  " style="fill:#515959;" />
	<polygon id="d0020" points="29.009,128.002 29.018,122.273 24.059,119.413 24.05,125.133  " style="fill:#515959;" />
	<polygon id="d0026_1_" points="19.108,99.375 19.117,93.647 14.158,90.786 14.149,96.507  " style="fill:#515959;" />
	<polygon id="d0029_1_" points="24.067,107.964 24.067,102.244 19.108,99.375 19.108,105.104  " style="fill:#515959;" />
	<polygon id="d0030_1_" points="24.067,102.244 24.067,96.515 19.117,93.647 19.108,99.375  " style="fill:#515959;" />
	<polygon id="d0031_1_" points="24.067,96.515 24.076,90.786 19.117,87.926 19.117,93.647  " style="fill:#515959;" />
	<polygon id="d0032_1_" points="78.586,139.438 73.62,142.294 73.615,148.024 78.581,145.167  " style="fill:#515959;" />
	<polygon id="d0033_1_" points="78.581,145.167 73.627,148.027 73.622,153.756 78.583,150.892  " style="fill:#515959;" />
	<polygon id="d0034_1_" points="83.546,142.31 78.581,145.167 78.583,150.892 83.545,148.027  " style="fill:#515959;" />
	<polygon id="d0037_1_" points="88.505,133.721 83.551,136.581 83.546,142.31 88.508,139.445  " style="fill:#515959;" />
	<polygon id="d0041" points="98.432,127.999 93.471,130.864 93.462,136.585 98.427,133.729  " style="fill:#515959;" />
	<polygon id="d0042_1_" points="103.389,130.864 98.427,133.729 98.418,139.45 103.384,136.593  " style="fill:#515959;" />
	<polygon id="d0043_1_" points="103.386,125.139 98.432,127.999 98.427,133.729 103.389,130.864  " style="fill:#515959;" />
	<polygon id="d0045" points="108.352,122.282 103.386,125.139 103.389,130.864 108.342,128.004  " style="fill:#515959;" />
	<polygon id="d0052_1_" points="128.186,110.841 123.22,113.698 123.223,119.423 128.177,116.563  " style="fill:#515959;" />
	<polygon id="d0054_1_" points="133.14,107.981 128.174,110.838 128.177,116.563 133.131,113.703  " style="fill:#515959;" />
	<polygon id="d0056_1_" points="128.188,99.387 123.222,102.244 123.225,107.969 128.179,105.109  " style="fill:#515959;" />
	<polygon id="d0061_1_" points="133.144,85.073 128.178,87.93 128.181,93.655 133.135,90.795  " style="fill:#515959;" />
	<polygon id="d0063_1_" points="133.151,90.805 128.186,93.662 128.188,99.387 133.146,96.535  " style="fill:#515959;" />
	<polygon id="d0066_1_" points="19.126,76.469 19.126,70.749 14.167,67.88 14.167,73.609  " style="fill:#515959;" />
	<polygon id="d0067_1_" points="19.126,70.749 19.126,65.02 14.175,62.16 14.167,67.88  " style="fill:#515959;" />
	<polygon id="d0072" points="19.126,65.02 19.135,59.291 14.175,56.431 14.175,62.16  " style="fill:#515959;" />
	<polygon id="d0073" points="19.135,59.291 19.135,53.571 14.175,50.702 14.175,56.431  " style="fill:#515959;" />
	<polygon id="d0077" points="19.137,53.559 24.094,56.431 29.05,53.566 24.096,50.706  " style="fill:#515959;" />
	<polygon id="d0078" points="24.093,50.694 29.05,53.566 34.007,50.701 29.057,47.834  " style="fill:#515959;" />
	<polygon id="d0079" points="29.057,47.834 34.014,50.706 38.971,47.841 34.017,44.981  " style="fill:#515959;" />
	<polygon id="d0080" points="19.144,47.826 24.101,50.698 29.057,47.834 24.108,44.966  " style="fill:#515959;" />
	<polygon id="d0085" points="38.978,42.108 43.935,44.981 48.891,42.116 43.937,39.256  " style="fill:#515959;" />
	<polygon id="d0086" points="38.985,36.376 43.942,39.248 48.898,36.383 43.949,33.516  " style="fill:#515959;" />
	<polygon id="d0088" points="43.944,33.523 48.901,36.395 53.858,33.531 48.904,30.671  " style="fill:#515959;" />
	<polygon id="d0090" points="48.905,30.651 53.862,33.523 58.819,30.658 53.869,27.791  " style="fill:#515959;" />
	<polygon id="d0094_1_" points="58.826,24.926 63.783,27.798 68.739,24.933 63.79,22.065  " style="fill:#515959;" />
	<polygon id="d0100" points="133.146,73.619 128.18,76.476 128.183,82.201 133.137,79.341  " style="fill:#515959;" />
	<polygon id="d0101" points="133.148,62.165 128.183,65.022 128.185,70.747 133.139,67.887  " style="fill:#515959;" />
	<polygon id="d0103" points="133.156,67.897 128.19,70.754 128.193,76.479 133.151,73.627  " style="fill:#515959;" />
	<polygon id="d0105" points="118.305,53.59 123.262,56.462 128.226,53.602 123.269,50.73  " style="fill:#515959;" />
	<polygon id="d0107" points="128.197,53.571 123.231,56.428 123.234,62.153 128.188,59.293  " style="fill:#515959;" />
	<polygon id="d0109" points="123.269,50.73 128.223,53.59 133.187,50.729 128.225,47.865  " style="fill:#515959;" />
<polygon id="d0112" points="73.693,27.793 78.65,30.665 83.606,27.8 78.653,24.94  " style="fill:#515959;" />
	<polygon id="d0115" points="83.604,33.525 88.565,36.39 93.525,33.537 88.568,30.665  " style="fill:#515959;" />
	<polygon id="d0117" points="88.565,36.39 93.522,39.262 98.479,36.397 93.525,33.537  " style="fill:#515959;" />
	<polygon id="d0119" points="93.522,39.262 98.476,42.122 103.44,39.261 98.479,36.397  " style="fill:#515959;" />
	<polygon id="d0120_1_" points="93.525,33.537 98.479,36.397 103.443,33.536 98.481,30.672  " style="fill:#515959;" />
	<polygon id="d0121_1_" points="98.476,42.122 103.437,44.986 108.397,42.133 103.44,39.261  " style="fill:#515959;" />
	<polygon id="d0122_1_" points="98.479,36.397 103.44,39.261 108.4,36.408 103.443,33.536  " style="fill:#515959;" />
	</g>
<g id="VuMark-BrightElements">
	<polygon id="b0000_1_" points="33.977,130.862 33.986,125.133 29.027,122.273 29.027,127.993  " style="fill:#FFFFFF;" />
	<polygon id="b0002_1_" points="43.895,136.591 43.904,130.862 38.945,128.002 38.945,133.722  " style="fill:#FFFFFF;" />
	<polygon id="b0003_1_" points="43.895,130.871 43.904,125.142 38.945,122.282 38.945,128.002  " style="fill:#FFFFFF;" />
	<polygon id="b0004_1_" points="48.846,139.46 48.855,133.731 43.895,130.871 43.887,136.591  " style="fill:#FFFFFF;" />
	<polygon id="b0005_1_" points="48.855,133.74 48.863,128.011 43.904,125.151 43.895,130.871  " style="fill:#FFFFFF;" />
	<polygon id="b0008_1_" points="58.764,145.189 58.773,139.46 53.814,136.6 53.805,142.32  " style="fill:#FFFFFF;" />
	<polygon id="b0009" points="58.773,139.469 58.782,133.74 53.823,130.88 53.814,136.6  " style="fill:#FFFFFF;" />
	<polygon id="b0013_1_" points="68.691,145.197 68.7,139.469 63.741,136.609 63.732,142.329  " style="fill:#FFFFFF;" />
	<polygon id="b0014_1_" points="73.651,153.778 73.659,148.049 68.7,145.189 68.7,150.909  " style="fill:#FFFFFF;" />
	<polygon id="b0015_1_" points="73.651,148.058 73.659,142.329 68.7,139.469 68.7,145.189  " style="fill:#FFFFFF;" />
	<polygon id="b0016_1_" points="19.091,122.273 19.1,116.544 14.14,113.684 14.132,119.405  " style="fill:#FFFFFF;" />
	<polygon id="b0017_1_" points="19.1,116.553 19.108,110.824 14.149,107.964 14.14,113.684  " style="fill:#FFFFFF;" />
	<polygon id="b0018_1_" points="24.059,125.133 24.067,119.404 19.108,116.544 19.108,122.265  " style="fill:#FFFFFF;" />
	<polygon id="b0021_1_" points="29.018,122.282 29.027,116.553 24.067,113.693 24.059,119.413  " style="fill:#FFFFFF;" />
	<polygon id="b0022_1_" points="33.977,125.142 33.986,119.413 29.027,116.553 29.027,122.273  " style="fill:#FFFFFF;" />
	<polygon id="b0023_1_" points="38.936,128.011 38.945,122.282 33.986,119.422 33.977,125.142  " style="fill:#FFFFFF;" />
	<polygon id="b0024_1_" points="19.108,110.824 19.108,105.104 14.149,102.235 14.149,107.964  " style="fill:#FFFFFF;" />
	<polygon id="b0025_1_" points="19.108,105.104 19.108,99.375 14.149,96.507 14.149,102.235  " style="fill:#FFFFFF;" />
	<polygon id="b0027_1_" points="19.117,93.647 19.117,87.926 14.158,85.058 14.158,90.786  " style="fill:#FFFFFF;" />
	<polygon id="b0028_1_" points="24.059,113.693 24.067,107.964 19.108,105.104 19.108,110.824  " style="fill:#FFFFFF;" />
	<polygon id="b0035_1_" points="83.551,136.581 78.586,139.438 78.581,145.167 83.546,142.31  " style="fill:#FFFFFF;" />
	<polygon id="b0036_1_" points="88.508,139.445 83.546,142.31 83.545,148.027 88.503,145.175  " style="fill:#FFFFFF;" />
	<polygon id="b0038_1_" points="93.462,136.585 88.508,139.445 88.503,145.175 93.464,142.31  " style="fill:#FFFFFF;" />
	<polygon id="b0039_1_" points="93.471,130.864 88.505,133.721 88.508,139.445 93.462,136.585  " style="fill:#FFFFFF;" />
	<polygon id="b0040" points="98.427,133.729 93.462,136.585 93.464,142.31 98.418,139.45  " style="fill:#FFFFFF;" />
	<polygon id="b0044" points="108.342,128.004 103.389,130.864 103.384,136.593 108.345,133.729  " style="fill:#FFFFFF;" />
	<polygon id="b0046" points="113.308,125.147 108.342,128.004 108.345,133.729 113.303,130.876  " style="fill:#FFFFFF;" />
	<polygon id="b0047_1_" points="118.269,122.283 113.308,125.147 113.303,130.876 118.264,128.012  " style="fill:#FFFFFF;" />
	<polygon id="b0048_1_" points="113.313,119.418 108.352,122.282 108.342,128.004 113.308,125.147  " style="fill:#FFFFFF;" />
	<polygon id="b0049_1_" points="118.267,116.558 113.313,119.418 113.308,125.147 118.269,122.283  " style="fill:#FFFFFF;" />
	<polygon id="b0050_1_" points="123.223,119.423 118.269,122.283 118.264,128.012 123.226,125.148  " style="fill:#FFFFFF;" />
	<polygon id="b0051_1_" points="123.232,113.701 118.267,116.558 118.269,122.283 123.223,119.423  " style="fill:#FFFFFF;" />
	<polygon id="b0053_1_" points="128.189,116.566 123.223,119.423 123.226,125.148 128.184,122.295  " style="fill:#FFFFFF;" />
	<polygon id="b0055_1_" points="133.147,113.713 128.181,116.57 128.184,122.295 133.142,119.443  " style="fill:#FFFFFF;" />
	<polygon id="b0057_1_" points="128.19,87.933 123.225,90.79 123.227,96.515 128.181,93.655  " style="fill:#FFFFFF;" />
	<polygon id="b0058_1_" points="128.191,105.112 123.225,107.969 123.228,113.694 128.186,110.841  " style="fill:#FFFFFF;" />
	<polygon id="b0059_1_" points="128.193,93.658 123.227,96.515 123.23,102.24 128.188,99.387  " style="fill:#FFFFFF;" />
	<polygon id="b0060_1_" points="133.142,96.527 128.176,99.384 128.179,105.109 133.133,102.249  " style="fill:#FFFFFF;" />
	<polygon id="b0062_1_" points="133.149,102.259 128.183,105.116 128.186,110.841 133.144,107.989  " style="fill:#FFFFFF;" />
	<polygon id="b0064_1_" points="19.117,87.926 19.117,82.198 14.167,79.329 14.158,85.058  " style="fill:#FFFFFF;" />
	<polygon id="b0065_1_" points="19.117,82.198 19.126,76.469 14.167,73.609 14.167,79.329  " style="fill:#FFFFFF;" />
	<polygon id="b0068_1_" points="24.076,90.786 24.076,85.066 19.117,82.198 19.117,87.926  " style="fill:#FFFFFF;" />
	<polygon id="b0069_1_" points="24.076,85.066 24.076,79.338 19.126,76.469 19.117,82.198  " style="fill:#FFFFFF;" />
	<polygon id="b0070" points="24.076,79.338 24.085,73.609 19.126,70.749 19.126,76.469  " style="fill:#FFFFFF;" />
	<polygon id="b0071" points="24.085,73.609 24.085,67.889 19.126,65.02 19.126,70.749  " style="fill:#FFFFFF;" />
	<polygon id="b0074" points="14.183,50.699 19.14,53.571 24.096,50.706 19.143,47.846  " style="fill:#FFFFFF;" />
	<polygon id="b0075" points="24.085,67.889 24.094,62.16 19.135,59.291 19.126,65.02  " style="fill:#FFFFFF;" />
	<polygon id="b0076" points="24.094,62.16 24.102,56.431 19.143,53.562 19.134,59.291  " style="fill:#FFFFFF;" />
	<polygon id="b0081" points="24.103,44.974 29.06,47.846 34.017,44.981 29.063,42.121  " style="fill:#FFFFFF;" />
	<polygon id="b0082" points="29.064,42.101 34.021,44.973 38.978,42.108 34.028,39.241  " style="fill:#FFFFFF;" />
	<polygon id="b0083" points="34.014,44.969 38.971,47.841 43.927,44.976 38.978,42.108  " style="fill:#FFFFFF;" />
	<polygon id="b0084" points="34.024,39.248 38.981,42.12 43.937,39.256 38.984,36.396  " style="fill:#FFFFFF;" />
	<polygon id="b0087" points="43.934,39.244 48.891,42.116 53.848,39.251 48.898,36.383  " style="fill:#FFFFFF;" />
	<polygon id="b0089" points="48.898,36.383 53.855,39.255 58.812,36.391 53.858,33.531  " style="fill:#FFFFFF;" />
	<polygon id="b0091" points="53.855,33.519 58.812,36.391 63.768,33.526 58.819,30.658  " style="fill:#FFFFFF;" />
	<polygon id="b0092" points="53.865,27.798 58.822,30.67 63.778,27.805 58.825,24.945  " style="fill:#FFFFFF;" />
	<polygon id="b0093" points="58.819,30.658 63.776,33.53 68.732,30.665 63.778,27.805  " style="fill:#FFFFFF;" />
	<polygon id="b0095_1_" points="63.775,27.793 68.732,30.665 73.689,27.801 68.739,24.933  " style="fill:#FFFFFF;" />
	<polygon id="b0096" points="128.193,76.479 123.227,79.336 123.229,85.061 128.183,82.201  " style="fill:#FFFFFF;" />
	<polygon id="b0097" points="128.195,65.025 123.229,67.882 123.232,73.607 128.185,70.747  " style="fill:#FFFFFF;" />
	<polygon id="b0098" points="128.195,82.204 123.229,85.061 123.232,90.786 128.19,87.933  " style="fill:#FFFFFF;" />
	<polygon id="b0099" points="128.197,70.75 123.232,73.607 123.234,79.332 128.193,76.479  " style="fill:#FFFFFF;" />
	<polygon id="b0102" points="133.153,79.351 128.188,82.208 128.19,87.933 133.149,85.081  " style="fill:#FFFFFF;" />
	<polygon id="b0104" points="113.348,50.718 118.305,53.59 123.269,50.73 118.312,47.858  " style="fill:#FFFFFF;" />
	<polygon id="b0106" points="118.312,47.858 123.269,50.73 128.225,47.865 123.264,45.001  " style="fill:#FFFFFF;" />
	<polygon id="b0108" points="128.199,59.296 123.234,62.153 123.236,67.878 128.195,65.025  " style="fill:#FFFFFF;" />
	<polygon id="b0110" points="133.151,50.711 128.185,53.568 128.188,59.293 133.141,56.433  " style="fill:#FFFFFF;" />
	<polygon id="b0111" points="133.158,56.443 128.192,59.3 128.195,65.025 133.153,62.173  " style="fill:#FFFFFF;" />
	<polygon id="b0113" points="78.65,30.665 83.604,33.525 88.568,30.665 83.606,27.8  " style="fill:#FFFFFF;" />
	<polygon id="b0114" points="78.653,24.94 83.606,27.8 88.571,24.94 83.609,22.076  " style="fill:#FFFFFF;" />
	<polygon id="b0116" points="83.606,27.8 88.568,30.665 93.532,27.804 88.571,24.94  " style="fill:#FFFFFF;" />
	<polygon id="b0118" points="88.568,30.665 93.525,33.537 98.481,30.672 93.532,27.804  " style="fill:#FFFFFF;" />
	<polygon id="b0123" points="103.437,44.986 108.394,47.858 113.351,44.993 108.397,42.133  " style="fill:#FFFFFF;" />
	<polygon id="b0124" points="103.44,39.261 108.397,42.133 113.353,39.269 108.4,36.408  " style="fill:#FFFFFF;" />
	<polygon id="b0125" points="108.394,47.858 113.348,50.718 118.312,47.858 113.351,44.993  " style="fill:#FFFFFF;" />
	<polygon id="b0126" points="108.397,42.133 113.351,44.993 118.315,42.133 113.353,39.269  " style="fill:#FFFFFF;" />
	<polygon id="b0127" points="113.351,44.993 118.312,47.858 123.264,45.001 118.315,42.133  " style="fill:#FFFFFF;" />
	</g>
<g id="VuMark-ClearSpace">
	<path d="M140.25,123.51l-66.61,38.45L7.02,123.51V46.58l57.015-32.922l9.722,5.58l9.605-5.513L140.25,46.58   V123.51z M73.66,27.779l-9.899-5.735L14.147,50.68l-0.044,68.703l59.519,34.373l59.492-34.335l0.045-68.713L83.581,22.054   L73.66,27.779l-9.899-5.735" style="fill:#FFFFFF;" />
</g>
<g id="VuMark-Border">
	<path d="M73.64,0L0,42.52v85.04l73.64,42.52l73.64-42.52V42.52L73.64,0z M140.25,123.51l-66.61,38.45   L7.02,123.51V46.58l57.015-32.922l9.722,5.58l9.605-5.513L140.25,46.58V123.51z" style="fill:#515959;" />
</g>
</svg>